<?xml version="1.0" standalone="no"?>
<!DOCTYPE svg PUBLIC "-//W3C//DTD SVG 20010904//EN"
 "http://www.w3.org/TR/2001/REC-SVG-20010904/DTD/svg10.dtd">
<svg version="1.0" xmlns="http://www.w3.org/2000/svg"
 width="1024.000000pt" height="1024.000000pt" viewBox="0 0 1024.000000 1024.000000"
 preserveAspectRatio="xMidYMid meet">

<g transform="translate(0.000000,1024.000000) scale(0.100000,-0.100000)"
fill="#00a3e4" stroke="none">
<path d="M4820 9514 c-19 -2 -102 -11 -185 -20 -687 -72 -1383 -323 -1970
-709 -304 -200 -511 -371 -765 -631 -236 -242 -451 -521 -634 -823 -330 -543
-519 -1117 -592 -1795 -19 -175 -22 -632 -5 -806 61 -641 232 -1223 501 -1708
436 -785 1088 -1415 1880 -1816 524 -266 990 -407 1573 -478 244 -29 735 -32
957 -5 313 38 522 80 794 158 1097 317 2027 1031 2614 2009 309 514 479 1036
569 1745 26 202 25 788 0 995 -76 610 -291 1228 -604 1735 -432 702 -995 1234
-1718 1625 -490 265 -974 421 -1557 501 -125 17 -215 22 -488 24 -184 2 -351
1 -370 -1z m730 -1177 c733 -123 1420 -484 1936 -1019 416 -431 670 -887 818
-1468 147 -576 117 -1162 -90 -1779 -228 -679 -698 -1290 -1291 -1679 -446
-293 -954 -478 -1503 -548 -164 -20 -536 -15 -693 10 -619 100 -1122 311
-1607 675 -139 104 -420 381 -544 536 -426 533 -669 1153 -727 1855 -33 408
43 915 198 1310 265 679 763 1264 1403 1650 337 204 721 356 1077 429 247 51
350 60 623 57 206 -3 269 -8 400 -29z"/>
<path d="M4850 8011 c-48 -11 -278 -279 -409 -475 -113 -168 -293 -498 -279
-511 8 -7 231 -58 332 -75 129 -22 364 -50 419 -50 l37 0 0 560 0 560 -37 -1
c-21 -1 -49 -4 -63 -8z"/>
<path d="M5290 7458 l0 -558 49 0 c104 0 459 56 654 102 103 25 101 13 20 168
-148 281 -296 496 -489 710 -33 36 -71 79 -85 96 -22 28 -33 32 -87 36 l-62 4
0 -558z"/>
<path d="M5976 7877 c4 -6 44 -66 90 -132 114 -168 322 -530 346 -605 5 -17
112 26 371 148 l137 65 -22 25 c-38 40 -304 212 -451 291 -182 97 -484 231
-471 208z"/>
<path d="M4100 7816 c-192 -81 -432 -206 -570 -297 -134 -87 -210 -145 -210
-159 0 -12 313 -156 477 -221 21 -8 28 2 107 160 97 194 182 340 270 461 79
109 80 110 64 110 -7 0 -69 -24 -138 -54z"/>
<path d="M2959 7023 c-112 -117 -244 -282 -233 -292 11 -9 242 -111 489 -215
99 -42 206 -88 237 -103 32 -15 60 -25 62 -22 2 2 25 62 51 133 26 71 64 168
86 214 21 47 39 86 39 87 0 2 -12 6 -27 10 -50 12 -265 105 -440 191 -95 46
-174 84 -176 84 -2 0 -42 -39 -88 -87z"/>
<path d="M7040 7033 c-80 -40 -221 -103 -315 -140 -93 -37 -172 -68 -174 -70
-2 -2 3 -20 12 -40 8 -21 35 -85 60 -143 24 -58 54 -134 66 -170 32 -97 28
-94 98 -61 34 17 90 42 125 56 35 15 186 81 336 147 l272 121 -17 27 c-49 77
-295 352 -311 348 -4 -1 -72 -34 -152 -75z"/>
<path d="M3967 6611 c-62 -149 -92 -235 -138 -395 -82 -291 -149 -685 -149
-878 l0 -63 635 -3 635 -2 0 639 0 639 -67 7 c-232 21 -583 82 -770 134 l-102
28 -44 -106z"/>
<path d="M6179 6705 c-13 -12 -290 -76 -429 -99 -139 -22 -211 -31 -402 -51
l-58 -6 0 -639 0 -639 636 2 636 1 -6 95 c-32 450 -166 1005 -311 1292 -23 44
-49 62 -66 44z"/>
<path d="M2480 6333 c-132 -273 -221 -565 -265 -877 -8 -56 -15 -119 -15 -141
l0 -40 565 0 565 0 0 75 c0 77 31 375 49 465 5 28 19 92 31 144 17 76 18 96 8
102 -7 5 -63 29 -124 53 -127 51 -650 278 -706 307 -20 10 -41 19 -46 19 -5 0
-33 -48 -62 -107z"/>
<path d="M7630 6412 c-48 -24 -638 -279 -775 -335 -27 -11 -51 -21 -53 -22 -1
-1 6 -40 17 -86 31 -135 60 -324 71 -474 7 -77 14 -158 16 -180 l4 -40 567 -2
566 -1 -7 86 c-23 283 -137 689 -264 943 -37 73 -71 134 -77 135 -5 2 -35 -9
-65 -24z"/>
<path d="M2200 4903 c0 -155 111 -630 199 -851 44 -109 141 -312 149 -312 3 0
116 50 251 111 290 132 608 269 623 269 6 0 8 11 4 28 -49 228 -83 469 -94
657 l-7 127 -562 2 -563 2 0 -33z"/>
<path d="M3676 4931 c-2 -3 0 -53 5 -111 31 -366 105 -740 210 -1053 41 -123
115 -307 124 -307 1 0 21 7 44 15 122 43 520 116 706 130 44 3 104 8 133 11
l52 5 -2 656 -3 655 -633 3 c-347 2 -634 0 -636 -4z"/>
<path d="M5290 4280 l0 -658 68 -7 c312 -30 650 -86 799 -133 46 -15 65 -17
71 -8 54 67 190 503 246 786 38 193 86 555 86 655 0 20 -7 20 -635 22 l-635 2
0 -659z"/>
<path d="M6907 4934 c-4 -4 -7 -44 -7 -88 0 -75 -22 -324 -36 -405 -3 -20 -14
-83 -24 -141 -10 -58 -21 -121 -24 -141 l-6 -36 297 -128 c164 -70 359 -157
433 -192 74 -35 139 -62 145 -59 17 6 101 184 157 330 84 222 188 673 188 814
l0 47 -558 3 c-307 1 -561 -1 -565 -4z"/>
<path d="M3355 3725 c-292 -126 -624 -280 -625 -288 0 -12 152 -195 241 -291
l74 -79 70 35 c159 81 525 238 552 238 20 0 16 25 -19 108 -18 42 -53 135 -78
206 -25 71 -49 131 -55 133 -5 2 -77 -26 -160 -62z"/>
<path d="M6685 3703 c-16 -48 -53 -146 -81 -218 -46 -115 -51 -131 -36 -137 9
-4 89 -37 177 -74 87 -36 224 -96 303 -134 l143 -69 61 65 c64 67 248 293 248
304 0 10 -719 336 -765 347 -17 4 -24 -7 -50 -84z"/>
<path d="M4835 3268 c-134 -11 -381 -50 -538 -85 -154 -33 -151 -14 -35 -223
158 -283 272 -445 468 -663 l95 -107 63 0 62 0 0 545 c0 300 -3 544 -7 544 -5
-1 -53 -6 -108 -11z"/>
<path d="M5290 2733 l0 -548 50 1 c28 1 54 2 58 3 12 2 189 201 266 300 104
131 228 324 347 539 80 144 91 126 -106 166 -173 35 -369 63 -485 71 -52 4
-103 9 -112 12 -17 4 -18 -27 -18 -544z"/>
<path d="M3600 2951 c-253 -112 -283 -130 -267 -150 55 -68 561 -345 792 -434
151 -58 146 -62 62 60 -92 135 -196 309 -284 478 -51 97 -73 130 -88 132 -11
1 -108 -38 -215 -86z"/>
<path d="M6356 2943 c-58 -117 -185 -332 -295 -498 -43 -66 -78 -121 -77 -122
1 -1 56 18 122 43 186 70 463 212 618 316 77 51 150 100 163 108 12 8 23 18
23 22 0 17 -458 228 -494 228 -7 0 -34 -44 -60 -97z"/>
</g>
</svg>
